<?xml version="1.0" standalone="no"?>
<!DOCTYPE svg PUBLIC "-//W3C//DTD SVG 20010904//EN"
 "http://www.w3.org/TR/2001/REC-SVG-20010904/DTD/svg10.dtd">
<svg version="1.0" xmlns="http://www.w3.org/2000/svg"
 width="30px" height="30px" viewBox="0 0 512.000000 512.000000"
 preserveAspectRatio="xMidYMid meet">

<g transform="translate(0.000000,512.000000) scale(0.100000,-0.100000)"
fill="#000000" stroke="none">
<path d="M2265 5110 c-558 -49 -999 -180 -1315 -391 -336 -224 -543 -638 -620
-1234 -42 -326 -45 -948 -5 -1245 101 -767 434 -1235 1022 -1437 l83 -28 0
-291 c0 -231 3 -301 15 -342 27 -91 89 -142 172 -142 88 0 178 83 466 425
l160 189 386 1 c411 1 515 8 816 60 161 28 463 108 580 155 437 173 734 527
858 1025 90 360 129 1018 86 1470 -56 589 -218 1010 -493 1277 -258 251 -707
416 -1351 494 -143 18 -712 27 -860 14z m835 -375 c565 -70 975 -222 1159
-432 183 -206 295 -512 348 -953 21 -178 24 -681 5 -900 -33 -371 -78 -559
-187 -768 -115 -221 -306 -398 -532 -492 -94 -39 -370 -112 -543 -144 -249
-46 -406 -59 -725 -62 l-300 -3 -104 -128 c-160 -197 -484 -582 -533 -636 -31
-32 -53 -47 -70 -47 -53 0 -53 -3 -53 487 l0 454 -60 20 c-172 58 -330 154
-451 274 -207 206 -322 464 -381 860 -26 174 -26 883 0 1094 36 285 85 468
177 656 122 247 266 390 515 510 233 112 554 191 915 225 143 13 673 4 820
-15z"/>
<path d="M2567 4185 c-12 -12 -17 -29 -15 -54 4 -46 32 -61 114 -61 33 0 103
-7 154 -16 357 -61 640 -266 803 -581 87 -169 131 -340 147 -568 9 -140 16
-155 70 -155 41 0 60 28 60 89 0 79 -19 235 -42 340 -126 590 -577 986 -1158
1018 -103 5 -118 4 -133 -12z"/>
<path d="M1717 4045 c-110 -28 -293 -192 -351 -314 -25 -54 -31 -78 -31 -136
0 -66 5 -82 88 -275 160 -371 320 -651 503 -880 136 -170 356 -373 554 -512
193 -135 516 -315 710 -394 145 -59 212 -63 303 -20 130 63 299 267 321 388
12 64 -8 109 -77 176 -106 103 -283 234 -420 312 -45 25 -71 33 -110 33 -83 1
-117 -20 -196 -121 -72 -92 -80 -98 -141 -113 -61 -14 -229 53 -374 150 -187
124 -367 365 -461 616 -45 118 -29 164 90 264 98 83 120 125 113 218 -3 49
-13 74 -62 158 -72 123 -127 201 -228 327 -102 127 -139 146 -231 123z"/>
<path d="M2683 3855 c-27 -19 -32 -75 -9 -98 8 -7 53 -19 100 -26 405 -56 640
-310 671 -726 7 -97 21 -125 62 -125 12 0 32 9 43 20 25 25 27 117 5 243 -61
352 -295 606 -636 691 -136 34 -209 40 -236 21z"/>
<path d="M2770 3500 c-11 -11 -20 -30 -20 -43 0 -42 22 -58 101 -72 167 -29
247 -114 268 -285 10 -78 30 -110 68 -110 32 0 63 34 63 70 0 55 -31 183 -57
233 -33 67 -107 144 -165 173 -53 27 -155 54 -205 54 -20 0 -41 -8 -53 -20z"/>
</g>
</svg>
